M48
;Layer_Color=9474304
;FILE_FORMAT=2:5
INCH,TZ
;TYPE=PLATED
T1F00S00C0.02500
T2F00S00C0.02756
T3F00S00C0.03000
T4F00S00C0.03150
T5F00S00C0.03500
T6F00S00C0.03600
T7F00S00C0.03937
T8F00S00C0.17717
%
T01
X356002Y285237
X365502Y311237
T02
X306132Y281198
Y298914
T03
X424502Y235237
X437502Y262737
X401002Y342237
T04
X300002Y325737
X310002
X320002
T05
X433502Y247237
X409002Y304737
X431502Y335237
T06
X456902Y266437
Y276537
Y286337
Y296437
T07
X297372Y276178
Y303934
T08
X483858Y201772
X299606Y201870
X299410Y375787
X483858
M30
