G04 Layer_Color=8388736*
%FSLAX25Y25*%
%MOIN*%
G70*
G01*
G75*
%ADD17R,0.02200X0.05800*%
%ADD45R,0.05800X0.06300*%
%ADD46R,0.05524X0.03162*%
%ADD47R,0.06300X0.05800*%
%ADD48R,0.05131X0.03359*%
%ADD49R,0.04147X0.01902*%
%ADD50R,0.06902X0.03359*%
%ADD51R,0.07887X0.05524*%
%ADD52R,0.04737X0.13398*%
%ADD53R,0.06115X0.02375*%
%ADD54R,0.07099X0.09658*%
%ADD55R,0.05209X0.05603*%
%ADD56C,0.05918*%
%ADD57C,0.08800*%
%ADD58O,0.08300X0.07300*%
%ADD59O,0.08674X0.06312*%
%ADD60O,0.05918X0.05328*%
%ADD61C,0.24422*%
%ADD62C,0.04800*%
%ADD63C,0.06800*%
G36*
X374258Y326719D02*
X375099D01*
Y324574D01*
Y323000D01*
Y321474D01*
Y317755D01*
X374258D01*
Y315249D01*
X373471D01*
Y317755D01*
X372684D01*
Y315249D01*
X371896D01*
Y317755D01*
X371109D01*
Y315249D01*
X370321D01*
Y317755D01*
X369534D01*
Y315249D01*
X368746D01*
Y317755D01*
X367906D01*
Y321474D01*
Y323000D01*
Y324574D01*
Y326719D01*
X368746D01*
Y329225D01*
X369534D01*
Y326719D01*
X370321D01*
Y329225D01*
X371109D01*
Y326719D01*
X371896D01*
Y329225D01*
X372684D01*
Y326719D01*
X373471D01*
Y329225D01*
X374258D01*
Y326719D01*
D02*
G37*
G36*
X379258Y325347D02*
X375361D01*
Y327001D01*
X379258D01*
Y325347D01*
D02*
G37*
G36*
X367644D02*
X363747D01*
Y327001D01*
X367644D01*
Y325347D01*
D02*
G37*
G36*
X379258Y323379D02*
X375361D01*
Y325032D01*
X379258D01*
Y323379D01*
D02*
G37*
G36*
X367644D02*
X363747D01*
Y325032D01*
X367644D01*
Y323379D01*
D02*
G37*
G36*
X379258Y321410D02*
X375361D01*
Y323064D01*
X379258D01*
Y321410D01*
D02*
G37*
G36*
X367644D02*
X363747D01*
Y323064D01*
X367644D01*
Y321410D01*
D02*
G37*
G36*
X379258Y319442D02*
X375361D01*
Y321095D01*
X379258D01*
Y319442D01*
D02*
G37*
G36*
X367644D02*
X363747D01*
Y321095D01*
X367644D01*
Y319442D01*
D02*
G37*
G36*
X440488Y327461D02*
X440539Y327451D01*
X440589Y327434D01*
X440636Y327411D01*
X440680Y327382D01*
X440719Y327347D01*
X440753Y327308D01*
X440783Y327264D01*
X440806Y327217D01*
X440823Y327168D01*
X440833Y327116D01*
X440836Y327064D01*
Y319190D01*
X440833Y319137D01*
X440823Y319086D01*
X440806Y319036D01*
X440783Y318989D01*
X440753Y318946D01*
X440719Y318906D01*
X440718Y318905D01*
X440678Y318871D01*
X440635Y318842D01*
X440588Y318818D01*
X440538Y318801D01*
X440487Y318791D01*
X440434Y318788D01*
X436445D01*
X436436Y318789D01*
X436426Y318788D01*
X436410Y318790D01*
X436393Y318791D01*
X436383Y318793D01*
X436374Y318794D01*
X436358Y318798D01*
X436341Y318801D01*
X436338Y318803D01*
X436332Y318805D01*
X436323Y318807D01*
X436308Y318813D01*
X436292Y318818D01*
X436283Y318823D01*
X436275Y318826D01*
X436260Y318834D01*
X436244Y318842D01*
X436243Y318843D01*
X436237Y318847D01*
X436229Y318851D01*
X436215Y318861D01*
X436201Y318871D01*
X436194Y318877D01*
X436186Y318882D01*
X436174Y318894D01*
X436162Y318905D01*
X436161Y318906D01*
X436155Y318912D01*
X436149Y318919D01*
X436138Y318932D01*
X436127Y318945D01*
X436123Y318951D01*
X436122Y318952D01*
X436116Y318960D01*
X436107Y318974D01*
X436098Y318988D01*
X436094Y318997D01*
X436089Y319005D01*
X435793Y319578D01*
X435050Y320619D01*
X434130Y321494D01*
X433062Y322179D01*
X431884Y322651D01*
X430637Y322891D01*
X429368Y322891D01*
X428122Y322651D01*
X426943Y322180D01*
X425875Y321494D01*
X424955Y320619D01*
X424212Y319578D01*
X423916Y319005D01*
X423910Y318995D01*
X423904Y318984D01*
X423896Y318972D01*
X423889Y318960D01*
X423881Y318951D01*
X423874Y318941D01*
X423865Y318930D01*
X423856Y318919D01*
X423847Y318911D01*
X423839Y318902D01*
X423829Y318893D01*
X423819Y318883D01*
X423809Y318876D01*
X423799Y318868D01*
X423788Y318860D01*
X423776Y318852D01*
X423766Y318846D01*
X423755Y318839D01*
X423743Y318833D01*
X423731Y318827D01*
X423719Y318822D01*
X423708Y318817D01*
X423695Y318813D01*
X423682Y318808D01*
X423670Y318805D01*
X423658Y318801D01*
X423644Y318798D01*
X423631Y318795D01*
X423618Y318794D01*
X423606Y318791D01*
X423593Y318791D01*
X423579Y318789D01*
X423566Y318789D01*
X423554Y318789D01*
X423551Y318789D01*
X419569D01*
X419517Y318792D01*
X419465Y318803D01*
X419416Y318819D01*
X419369Y318843D01*
X419325Y318872D01*
X419286Y318906D01*
X419251Y318946D01*
X419222Y318989D01*
X419199Y319036D01*
X419182Y319086D01*
X419172Y319137D01*
X419168Y319190D01*
Y327064D01*
X419172Y327116D01*
X419182Y327168D01*
X419199Y327217D01*
X419222Y327264D01*
X419251Y327308D01*
X419286Y327347D01*
X419325Y327382D01*
X419369Y327411D01*
X419416Y327434D01*
X419465Y327451D01*
X419517Y327461D01*
X419569Y327465D01*
X440435D01*
X440488Y327461D01*
D02*
G37*
G36*
X379258Y317473D02*
X375361D01*
Y319127D01*
X379258D01*
Y317473D01*
D02*
G37*
G36*
X367644D02*
X363747D01*
Y319127D01*
X367644D01*
Y317473D01*
D02*
G37*
G36*
X423569Y313685D02*
X423578Y313686D01*
X423595Y313684D01*
X423612Y313683D01*
X423621Y313681D01*
X423630Y313680D01*
X423647Y313676D01*
X423664Y313672D01*
X423672Y313669D01*
X423681Y313667D01*
X423697Y313661D01*
X423713Y313656D01*
X423722Y313651D01*
X423730Y313648D01*
X423745Y313640D01*
X423760Y313632D01*
X423768Y313627D01*
X423776Y313623D01*
X423790Y313613D01*
X423804Y313603D01*
X423811Y313597D01*
X423818Y313592D01*
X423830Y313580D01*
X423843Y313569D01*
X423849Y313562D01*
X423856Y313555D01*
X423866Y313542D01*
X423872Y313536D01*
X423878Y313529D01*
X423883Y313522D01*
X423889Y313514D01*
X423897Y313500D01*
X423902Y313493D01*
X423907Y313486D01*
X423911Y313477D01*
X423916Y313469D01*
X424212Y312896D01*
X424955Y311855D01*
X425874Y310980D01*
X426942Y310295D01*
X428121Y309823D01*
X429367Y309583D01*
X430637Y309583D01*
X431883Y309823D01*
X433062Y310294D01*
X434130Y310980D01*
X435049Y311855D01*
X435792Y312896D01*
X436089Y313469D01*
X436092Y313474D01*
X436095Y313480D01*
X436105Y313496D01*
X436116Y313514D01*
X436120Y313519D01*
X436123Y313524D01*
X436136Y313539D01*
X436148Y313555D01*
X436153Y313559D01*
X436157Y313564D01*
X436172Y313577D01*
X436186Y313591D01*
X436191Y313595D01*
X436196Y313599D01*
X436212Y313610D01*
X436228Y313622D01*
X436234Y313625D01*
X436239Y313629D01*
X436257Y313638D01*
X436274Y313647D01*
X436280Y313650D01*
X436286Y313653D01*
X436304Y313659D01*
X436323Y313667D01*
X436329Y313668D01*
X436335Y313670D01*
X436354Y313674D01*
X436374Y313679D01*
X436380Y313680D01*
X436386Y313681D01*
X436406Y313683D01*
X436426Y313685D01*
X436432Y313685D01*
X436439Y313685D01*
X436445Y313685D01*
X436445Y313685D01*
X440435D01*
X440488Y313682D01*
X440539Y313671D01*
X440589Y313655D01*
X440636Y313631D01*
X440680Y313602D01*
X440719Y313568D01*
X440753Y313528D01*
X440783Y313485D01*
X440806Y313438D01*
X440823Y313388D01*
X440833Y313337D01*
X440836Y313284D01*
Y305410D01*
X440833Y305358D01*
X440823Y305307D01*
X440806Y305257D01*
X440783Y305210D01*
X440753Y305166D01*
X440719Y305127D01*
X440680Y305092D01*
X440636Y305063D01*
X440589Y305040D01*
X440539Y305023D01*
X440488Y305013D01*
X440435Y305009D01*
X419569D01*
X419517Y305013D01*
X419465Y305023D01*
X419416Y305040D01*
X419369Y305063D01*
X419325Y305092D01*
X419286Y305127D01*
X419251Y305166D01*
X419222Y305210D01*
X419199Y305257D01*
X419182Y305307D01*
X419172Y305358D01*
X419168Y305410D01*
Y313284D01*
X419172Y313337D01*
X419182Y313388D01*
X419199Y313438D01*
X419222Y313485D01*
X419251Y313528D01*
X419286Y313568D01*
X419287Y313569D01*
X419326Y313603D01*
X419370Y313632D01*
X419417Y313656D01*
X419467Y313672D01*
X419518Y313683D01*
X419570Y313686D01*
X423560D01*
X423569Y313685D01*
D02*
G37*
G36*
X413381Y251568D02*
X413433Y251557D01*
X413483Y251540D01*
X413530Y251517D01*
X413573Y251488D01*
X413613Y251453D01*
X413647Y251414D01*
X413676Y251371D01*
X413699Y251324D01*
X413716Y251274D01*
X413727Y251222D01*
X413730Y251170D01*
Y230304D01*
X413727Y230252D01*
X413716Y230200D01*
X413699Y230151D01*
X413676Y230103D01*
X413647Y230060D01*
X413613Y230020D01*
X413573Y229986D01*
X413530Y229957D01*
X413483Y229934D01*
X413433Y229917D01*
X413381Y229907D01*
X413329Y229903D01*
X405455D01*
X405403Y229907D01*
X405351Y229917D01*
X405302Y229934D01*
X405255Y229957D01*
X405211Y229986D01*
X405172Y230020D01*
X405171Y230022D01*
X405136Y230061D01*
X405107Y230105D01*
X405084Y230152D01*
X405067Y230201D01*
X405057Y230253D01*
X405053Y230305D01*
Y234294D01*
Y234294D01*
X405054Y234304D01*
X405054Y234313D01*
X405056Y234330D01*
X405057Y234347D01*
X405058Y234356D01*
X405059Y234365D01*
X405064Y234382D01*
X405067Y234398D01*
X405070Y234407D01*
X405072Y234416D01*
X405078Y234432D01*
X405084Y234448D01*
X405088Y234456D01*
X405091Y234465D01*
X405099Y234480D01*
X405107Y234495D01*
X405112Y234503D01*
X405117Y234511D01*
X405127Y234524D01*
X405136Y234538D01*
X405142Y234545D01*
X405148Y234553D01*
X405160Y234565D01*
X405171Y234578D01*
X405178Y234584D01*
X405184Y234591D01*
X405197Y234601D01*
X405210Y234612D01*
X405218Y234618D01*
X405225Y234623D01*
X405240Y234632D01*
X405254Y234642D01*
X405262Y234646D01*
X405270Y234650D01*
X405843Y234947D01*
X406884Y235690D01*
X407759Y236609D01*
X408445Y237677D01*
X408916Y238856D01*
X409156Y240102D01*
X409156Y241371D01*
X408916Y242618D01*
X408445Y243796D01*
X407760Y244865D01*
X406884Y245784D01*
X405844Y246527D01*
X405271Y246823D01*
X405263Y246828D01*
X405254Y246832D01*
X405240Y246842D01*
X405226Y246850D01*
X405219Y246856D01*
X405211Y246861D01*
X405198Y246872D01*
X405185Y246883D01*
X405178Y246890D01*
X405171Y246896D01*
X405160Y246909D01*
X405148Y246921D01*
X405143Y246928D01*
X405137Y246935D01*
X405127Y246949D01*
X405117Y246963D01*
X405113Y246971D01*
X405108Y246979D01*
X405100Y246994D01*
X405092Y247009D01*
X405089Y247018D01*
X405084Y247026D01*
X405079Y247042D01*
X405073Y247058D01*
X405071Y247067D01*
X405068Y247076D01*
X405064Y247092D01*
X405060Y247109D01*
X405059Y247118D01*
X405057Y247127D01*
X405056Y247144D01*
X405054Y247161D01*
X405055Y247170D01*
X405054Y247179D01*
X405054Y247184D01*
Y251170D01*
X405058Y251222D01*
X405068Y251274D01*
X405085Y251324D01*
X405108Y251371D01*
X405137Y251414D01*
X405172Y251453D01*
X405211Y251488D01*
X405255Y251517D01*
X405302Y251540D01*
X405351Y251557D01*
X405403Y251568D01*
X405455Y251571D01*
X413329D01*
X413381Y251568D01*
D02*
G37*
G36*
X399602D02*
X399653Y251557D01*
X399703Y251540D01*
X399750Y251517D01*
X399794Y251488D01*
X399833Y251453D01*
X399834Y251452D01*
X399869Y251413D01*
X399898Y251370D01*
X399921Y251322D01*
X399938Y251273D01*
X399948Y251221D01*
X399952Y251169D01*
Y247180D01*
X399951Y247170D01*
X399951Y247161D01*
X399949Y247144D01*
X399948Y247127D01*
X399946Y247118D01*
X399945Y247109D01*
X399941Y247093D01*
X399938Y247076D01*
X399935Y247067D01*
X399933Y247058D01*
X399926Y247042D01*
X399921Y247026D01*
X399917Y247018D01*
X399914Y247009D01*
X399905Y246994D01*
X399898Y246979D01*
X399893Y246971D01*
X399888Y246963D01*
X399878Y246950D01*
X399869Y246936D01*
X399863Y246929D01*
X399857Y246921D01*
X399845Y246909D01*
X399834Y246896D01*
X399827Y246890D01*
X399821Y246883D01*
X399808Y246873D01*
X399795Y246862D01*
X399787Y246856D01*
X399780Y246851D01*
X399765Y246842D01*
X399751Y246832D01*
X399743Y246828D01*
X399735Y246824D01*
X399162Y246527D01*
X398121Y245784D01*
X397246Y244865D01*
X396560Y243797D01*
X396089Y242618D01*
X395849Y241372D01*
X395849Y240103D01*
X396089Y238856D01*
X396560Y237678D01*
X397245Y236610D01*
X398120Y235690D01*
X399161Y234947D01*
X399734Y234651D01*
X399742Y234646D01*
X399750Y234642D01*
X399764Y234632D01*
X399779Y234624D01*
X399786Y234618D01*
X399794Y234613D01*
X399807Y234601D01*
X399820Y234591D01*
X399826Y234584D01*
X399833Y234578D01*
X399845Y234565D01*
X399856Y234553D01*
X399862Y234546D01*
X399868Y234539D01*
X399877Y234525D01*
X399887Y234511D01*
X399892Y234503D01*
X399897Y234495D01*
X399905Y234480D01*
X399913Y234465D01*
X399916Y234457D01*
X399920Y234448D01*
X399926Y234432D01*
X399932Y234416D01*
X399934Y234407D01*
X399937Y234399D01*
X399940Y234382D01*
X399944Y234365D01*
X399946Y234356D01*
X399947Y234347D01*
X399949Y234330D01*
X399950Y234313D01*
X399950Y234304D01*
X399951Y234295D01*
X399951Y234290D01*
Y230304D01*
X399947Y230252D01*
X399937Y230200D01*
X399920Y230151D01*
X399897Y230103D01*
X399868Y230060D01*
X399833Y230020D01*
X399794Y229986D01*
X399750Y229957D01*
X399703Y229934D01*
X399653Y229917D01*
X399602Y229907D01*
X399550Y229903D01*
X391676D01*
X391623Y229907D01*
X391572Y229917D01*
X391522Y229934D01*
X391475Y229957D01*
X391432Y229986D01*
X391392Y230020D01*
X391358Y230060D01*
X391328Y230103D01*
X391305Y230151D01*
X391288Y230200D01*
X391278Y230252D01*
X391275Y230304D01*
Y251170D01*
X391278Y251222D01*
X391288Y251274D01*
X391305Y251324D01*
X391328Y251371D01*
X391358Y251414D01*
X391392Y251453D01*
X391432Y251488D01*
X391475Y251517D01*
X391522Y251540D01*
X391572Y251557D01*
X391623Y251568D01*
X391676Y251571D01*
X399550D01*
X399602Y251568D01*
D02*
G37*
%LPC*%
G36*
X373840Y324574D02*
X372265D01*
Y323000D01*
X373840D01*
Y324574D01*
D02*
G37*
G36*
X370740D02*
X369165D01*
Y323000D01*
X370740D01*
Y324574D01*
D02*
G37*
G36*
X373840Y321474D02*
X372265D01*
Y319900D01*
X373840D01*
Y321474D01*
D02*
G37*
G36*
X370740D02*
X369165D01*
Y319900D01*
X370740D01*
Y321474D01*
D02*
G37*
%LPD*%
D17*
X415762Y276337D02*
D03*
X419502D02*
D03*
X423243D02*
D03*
Y285137D02*
D03*
X415762D02*
D03*
D45*
X350350Y280737D02*
D03*
X341350D02*
D03*
X362502Y301237D02*
D03*
X371502D02*
D03*
X341450Y291237D02*
D03*
X350450D02*
D03*
X398002Y338737D02*
D03*
X389002D02*
D03*
X389502Y316737D02*
D03*
X398502D02*
D03*
X437002Y296737D02*
D03*
X446002D02*
D03*
X429002Y260737D02*
D03*
X420002D02*
D03*
X389502Y326737D02*
D03*
X398502D02*
D03*
X313002Y266737D02*
D03*
X322002D02*
D03*
X313002Y257737D02*
D03*
X322002D02*
D03*
D46*
X366424Y266477D02*
D03*
Y258997D02*
D03*
X356581D02*
D03*
Y262737D02*
D03*
Y266477D02*
D03*
X400424Y264477D02*
D03*
Y256997D02*
D03*
X390581D02*
D03*
Y260737D02*
D03*
Y264477D02*
D03*
D47*
X409002Y326737D02*
D03*
Y317737D02*
D03*
X397002Y286137D02*
D03*
Y277137D02*
D03*
X435502Y276237D02*
D03*
Y285237D02*
D03*
X447002Y276237D02*
D03*
Y285237D02*
D03*
X406202Y286137D02*
D03*
Y277137D02*
D03*
X420502Y238737D02*
D03*
Y247737D02*
D03*
X383502Y237737D02*
D03*
Y246737D02*
D03*
X374302Y237737D02*
D03*
Y246737D02*
D03*
X365102Y238237D02*
D03*
Y247237D02*
D03*
X355902Y238237D02*
D03*
Y247237D02*
D03*
X347002Y257737D02*
D03*
Y266737D02*
D03*
X337002Y257737D02*
D03*
Y266737D02*
D03*
X410002Y257737D02*
D03*
Y266737D02*
D03*
X376002Y267737D02*
D03*
Y258737D02*
D03*
X353002Y305237D02*
D03*
Y314237D02*
D03*
X343002Y305237D02*
D03*
Y314237D02*
D03*
X393502Y295737D02*
D03*
Y304737D02*
D03*
X384002Y295737D02*
D03*
Y304737D02*
D03*
X384202Y284237D02*
D03*
Y275237D02*
D03*
D48*
X371727Y288977D02*
D03*
Y281497D02*
D03*
X362278D02*
D03*
Y285237D02*
D03*
Y288977D02*
D03*
D49*
X365695Y326174D02*
D03*
Y324205D02*
D03*
Y322237D02*
D03*
Y320269D02*
D03*
Y318300D02*
D03*
X377309D02*
D03*
Y320269D02*
D03*
Y322237D02*
D03*
Y324205D02*
D03*
Y326174D02*
D03*
D50*
X323202Y238537D02*
D03*
Y242474D02*
D03*
D51*
X336588Y247592D02*
D03*
Y233419D02*
D03*
D52*
X365672Y341737D02*
D03*
X374333D02*
D03*
D53*
X305739Y284938D02*
D03*
Y287497D02*
D03*
Y290056D02*
D03*
Y292615D02*
D03*
Y295174D02*
D03*
D54*
X322002Y295611D02*
D03*
Y279863D02*
D03*
D55*
X353605Y339237D02*
D03*
X341400D02*
D03*
D56*
X320002Y325737D02*
D03*
X310002D02*
D03*
X300002D02*
D03*
D57*
X409002Y304737D02*
D03*
X433502Y247237D02*
D03*
X431502Y335237D02*
D03*
D58*
X456902Y296437D02*
D03*
Y286337D02*
D03*
Y276537D02*
D03*
Y266437D02*
D03*
D59*
X297372Y303934D02*
D03*
Y276178D02*
D03*
D60*
X306132Y281198D02*
D03*
Y298914D02*
D03*
D61*
X299410Y375787D02*
D03*
X483858D02*
D03*
Y201772D02*
D03*
X299606Y201870D02*
D03*
D62*
X356002Y285237D02*
D03*
X365502Y311237D02*
D03*
D63*
X424502Y235237D02*
D03*
X437502Y262737D02*
D03*
X401002Y342237D02*
D03*
M02*
