G04 Layer_Color=65535*
%FSLAX25Y25*%
%MOIN*%
G70*
G01*
G75*
%ADD26C,0.01000*%
%ADD35C,0.01575*%
%ADD36C,0.00700*%
%ADD37C,0.00984*%
%ADD38C,0.00787*%
%ADD39C,0.00500*%
%ADD40C,0.00400*%
%ADD41C,0.00394*%
%ADD42C,0.00600*%
%ADD43C,0.00591*%
%ADD44C,0.00300*%
G36*
X451302Y296437D02*
X448802Y293937D01*
Y298937D01*
X451302Y296437D01*
D02*
G37*
G36*
X381703Y325424D02*
X380703D01*
Y326924D01*
X381703D01*
Y325424D01*
D02*
G37*
D26*
X296358Y388484D02*
X295384Y388310D01*
X294428Y388055D01*
X293496Y387723D01*
X292595Y387314D01*
X291731Y386833D01*
X290909Y386282D01*
X290136Y385665D01*
X289416Y384986D01*
X288755Y384250D01*
X288157Y383462D01*
X287625Y382627D01*
X287165Y381751D01*
X286779Y380841D01*
X286469Y379901D01*
X286237Y378939D01*
X286086Y377961D01*
X286017Y376974D01*
X286029Y375985D01*
X286122Y375000D01*
X497835Y378248D02*
X497660Y379222D01*
X497406Y380178D01*
X497073Y381110D01*
X496665Y382011D01*
X496183Y382875D01*
X495632Y383697D01*
X495015Y384471D01*
X494336Y385190D01*
X493600Y385852D01*
X492812Y386450D01*
X491978Y386981D01*
X491102Y387441D01*
X490191Y387828D01*
X489251Y388138D01*
X488289Y388369D01*
X487312Y388520D01*
X486325Y388590D01*
X485335Y388578D01*
X484350Y388484D01*
X286024Y195768D02*
X286198Y194794D01*
X286453Y193838D01*
X286785Y192906D01*
X287194Y192005D01*
X287675Y191140D01*
X288226Y190319D01*
X288843Y189545D01*
X289522Y188826D01*
X290258Y188164D01*
X291046Y187566D01*
X291881Y187035D01*
X292757Y186574D01*
X293667Y186188D01*
X294607Y185878D01*
X295569Y185647D01*
X296547Y185496D01*
X297534Y185426D01*
X298523Y185438D01*
X299508Y185531D01*
X487598Y185433D02*
X488572Y185608D01*
X489528Y185862D01*
X490460Y186195D01*
X491361Y186603D01*
X492226Y187084D01*
X493048Y187636D01*
X493821Y188253D01*
X494541Y188931D01*
X495202Y189667D01*
X495800Y190455D01*
X496331Y191290D01*
X496792Y192166D01*
X497178Y193077D01*
X497488Y194016D01*
X497719Y194978D01*
X497870Y195956D01*
X497940Y196943D01*
X497928Y197932D01*
X497835Y198917D01*
X301605Y273520D02*
X307904D01*
X301605Y306591D02*
X307904D01*
Y273520D02*
Y283166D01*
X286447Y273717D02*
Y306788D01*
X307904Y297143D02*
Y306591D01*
X498032Y195669D02*
Y378248D01*
X295472Y185433D02*
X488878D01*
X296555Y388484D02*
X486614D01*
X286122Y194783D02*
Y375000D01*
X295897Y273324D02*
X299439D01*
Y275095D01*
X298849Y275685D01*
X298259D01*
X297668Y275095D01*
Y273324D01*
Y275095D01*
X297078Y275685D01*
X296488D01*
X295897Y275095D01*
Y273324D01*
X297668Y276866D02*
Y279227D01*
X295897Y282769D02*
Y280408D01*
X297668D01*
Y281589D01*
Y280408D01*
X299439D01*
X371655Y204387D02*
Y210385D01*
X374654D01*
X375654Y209386D01*
Y207386D01*
X374654Y206387D01*
X371655D01*
X378653Y204387D02*
X380652D01*
X381652Y205387D01*
Y207386D01*
X380652Y208386D01*
X378653D01*
X377653Y207386D01*
Y205387D01*
X378653Y204387D01*
X383651Y208386D02*
Y205387D01*
X384651Y204387D01*
X385651Y205387D01*
X386650Y204387D01*
X387650Y205387D01*
Y208386D01*
X392648Y204387D02*
X390649D01*
X389649Y205387D01*
Y207386D01*
X390649Y208386D01*
X392648D01*
X393648Y207386D01*
Y206387D01*
X389649D01*
X395647Y208386D02*
Y204387D01*
Y206387D01*
X396647Y207386D01*
X397647Y208386D01*
X398646D01*
X407644Y210385D02*
Y204387D01*
X410642D01*
X411642Y205387D01*
Y206387D01*
Y207386D01*
X410642Y208386D01*
X407644D01*
X414641Y204387D02*
X416641D01*
X417640Y205387D01*
Y207386D01*
X416641Y208386D01*
X414641D01*
X413642Y207386D01*
Y205387D01*
X414641Y204387D01*
X420639Y208386D02*
X422639D01*
X423638Y207386D01*
Y204387D01*
X420639D01*
X419640Y205387D01*
X420639Y206387D01*
X423638D01*
X425638Y208386D02*
Y204387D01*
Y206387D01*
X426637Y207386D01*
X427637Y208386D01*
X428637D01*
X435634Y210385D02*
Y204387D01*
X432635D01*
X431636Y205387D01*
Y207386D01*
X432635Y208386D01*
X435634D01*
D35*
X299176Y313926D02*
X299668Y313074D01*
X300652D01*
X301144Y313926D01*
X300652Y314778D01*
X299668D01*
X299176Y313926D01*
D36*
X413404Y304737D02*
X413293Y305716D01*
X412968Y306647D01*
X412443Y307481D01*
X411746Y308178D01*
X410912Y308702D01*
X409982Y309028D01*
X409002Y309138D01*
X408023Y309028D01*
X407093Y308702D01*
X406258Y308178D01*
X405561Y307481D01*
X405037Y306647D01*
X404712Y305716D01*
X404601Y304737D01*
X404712Y303758D01*
X405037Y302827D01*
X405561Y301993D01*
X406258Y301296D01*
X407093Y300772D01*
X408023Y300446D01*
X409002Y300336D01*
X409982Y300446D01*
X410912Y300772D01*
X411746Y301296D01*
X412443Y301993D01*
X412968Y302827D01*
X413293Y303758D01*
X413404Y304737D01*
X437903Y247237D02*
X437793Y248216D01*
X437468Y249147D01*
X436943Y249981D01*
X436246Y250678D01*
X435412Y251202D01*
X434482Y251528D01*
X433502Y251638D01*
X432523Y251528D01*
X431593Y251202D01*
X430758Y250678D01*
X430061Y249981D01*
X429537Y249147D01*
X429212Y248216D01*
X429101Y247237D01*
X429212Y246258D01*
X429537Y245327D01*
X430061Y244493D01*
X430758Y243796D01*
X431593Y243272D01*
X432523Y242946D01*
X433502Y242836D01*
X434482Y242946D01*
X435412Y243272D01*
X436246Y243796D01*
X436943Y244493D01*
X437468Y245327D01*
X437793Y246258D01*
X437903Y247237D01*
X435904Y335237D02*
X435793Y336216D01*
X435468Y337147D01*
X434943Y337981D01*
X434246Y338678D01*
X433412Y339202D01*
X432482Y339528D01*
X431502Y339638D01*
X430523Y339528D01*
X429593Y339202D01*
X428758Y338678D01*
X428061Y337981D01*
X427537Y337147D01*
X427212Y336216D01*
X427101Y335237D01*
X427212Y334258D01*
X427537Y333327D01*
X428061Y332493D01*
X428758Y331796D01*
X429593Y331272D01*
X430523Y330946D01*
X431502Y330836D01*
X432482Y330946D01*
X433412Y331272D01*
X434246Y331796D01*
X434943Y332493D01*
X435468Y333327D01*
X435793Y334258D01*
X435904Y335237D01*
X451902Y291937D02*
X461802D01*
X451902Y261437D02*
X461902D01*
Y301437D01*
X451902D02*
X461902D01*
X451902Y261437D02*
Y301437D01*
X319364Y229876D02*
Y251135D01*
X340821D01*
Y229876D02*
Y251135D01*
X319364Y229876D02*
X340821D01*
D37*
X362770Y292422D02*
X362032Y292848D01*
Y291996D01*
X362770Y292422D01*
D38*
X439845Y314465D02*
Y318009D01*
X420160Y314465D02*
Y318009D01*
X354219Y268642D02*
X358943D01*
X360321Y257028D02*
Y268446D01*
Y257028D02*
X362684D01*
Y268446D01*
X360321D02*
X362684D01*
X367987Y279135D02*
Y291339D01*
X366018Y279135D02*
Y291339D01*
Y279135D02*
X367987D01*
X366018Y291339D02*
X367987D01*
X400731Y230894D02*
X404274D01*
X400731Y250580D02*
X404274D01*
X368821Y335871D02*
X371183D01*
X368821Y347603D02*
X371183D01*
X388219Y266642D02*
X392943D01*
X394321Y255028D02*
Y266446D01*
Y255028D02*
X396684D01*
Y266446D01*
X394321D02*
X396684D01*
X326924Y277894D02*
Y297580D01*
X317081Y276713D02*
Y297580D01*
X341990Y335694D02*
X353014D01*
X339195Y342780D02*
X353014D01*
D39*
X353550Y277437D02*
Y284137D01*
X338250Y277437D02*
X353550D01*
X338250D02*
Y284137D01*
X353550D01*
X359302Y297837D02*
Y304537D01*
X374602D01*
Y297837D02*
Y304537D01*
X359302Y297837D02*
X374602D01*
X338250Y287837D02*
Y294537D01*
X353550D01*
Y287837D02*
Y294537D01*
X338250Y287837D02*
X353550D01*
X405602Y329937D02*
X412302D01*
Y314637D02*
Y329937D01*
X405602Y314637D02*
X412302D01*
X405602D02*
Y329937D01*
X401202Y335437D02*
Y342137D01*
X385902Y335437D02*
X401202D01*
X385902D02*
Y342137D01*
X401202D01*
X386302Y313337D02*
Y320037D01*
X401602D01*
Y313337D02*
Y320037D01*
X386302Y313337D02*
X401602D01*
X393602Y289337D02*
X400302D01*
Y274037D02*
Y289337D01*
X393602Y274037D02*
X400302D01*
X393602D02*
Y289337D01*
X432202Y273037D02*
X438902D01*
X432202D02*
Y288337D01*
X438902D01*
Y273037D02*
Y288337D01*
X433802Y293337D02*
Y300037D01*
X449102D01*
Y293337D02*
Y300037D01*
X433802Y293337D02*
X449102D01*
X443702Y273037D02*
X450402D01*
X443702D02*
Y288337D01*
X450402D01*
Y273037D02*
Y288337D01*
X402802Y289337D02*
X409502D01*
Y274037D02*
Y289337D01*
X402802Y274037D02*
X409502D01*
X402802D02*
Y289337D01*
X432202Y257437D02*
Y264137D01*
X416902Y257437D02*
X432202D01*
X416902D02*
Y264137D01*
X432202D01*
X417202Y235537D02*
X423902D01*
X417202D02*
Y250837D01*
X423902D01*
Y235537D02*
Y250837D01*
X380202Y234537D02*
X386902D01*
X380202D02*
Y249837D01*
X386902D01*
Y234537D02*
Y249837D01*
X371002Y234537D02*
X377702D01*
X371002D02*
Y249837D01*
X377702D01*
Y234537D02*
Y249837D01*
X361802Y235037D02*
X368502D01*
X361802D02*
Y250337D01*
X368502D01*
Y235037D02*
Y250337D01*
X352602Y235037D02*
X359302D01*
X352602D02*
Y250337D01*
X359302D01*
Y235037D02*
Y250337D01*
X343702Y254537D02*
X350402D01*
X343702D02*
Y269837D01*
X350402D01*
Y254537D02*
Y269837D01*
X333702Y254537D02*
X340402D01*
X333702D02*
Y269837D01*
X340402D01*
Y254537D02*
Y269837D01*
X406702Y254537D02*
X413402D01*
X406702D02*
Y269837D01*
X413402D01*
Y254537D02*
Y269837D01*
X372602Y270937D02*
X379302D01*
Y255637D02*
Y270937D01*
X372602Y255637D02*
X379302D01*
X372602D02*
Y270937D01*
X386302Y323337D02*
Y330037D01*
X401602D01*
Y323337D02*
Y330037D01*
X386302Y323337D02*
X401602D01*
X349702Y302037D02*
X356402D01*
X349702D02*
Y317337D01*
X356402D01*
Y302037D02*
Y317337D01*
X339702Y302037D02*
X346402D01*
X339702D02*
Y317337D01*
X346402D01*
Y302037D02*
Y317337D01*
X390202Y292537D02*
X396902D01*
X390202D02*
Y307837D01*
X396902D01*
Y292537D02*
Y307837D01*
X380702Y292537D02*
X387402D01*
X380702D02*
Y307837D01*
X387402D01*
Y292537D02*
Y307837D01*
X380802Y287437D02*
X387502D01*
Y272137D02*
Y287437D01*
X380802Y272137D02*
X387502D01*
X380802D02*
Y287437D01*
X309802Y263337D02*
Y270037D01*
X325102D01*
Y263337D02*
Y270037D01*
X309802Y263337D02*
X325102D01*
X309802Y254337D02*
Y261037D01*
X325102D01*
Y254337D02*
Y261037D01*
X309802Y254337D02*
X325102D01*
D40*
X344150Y283237D02*
X347550D01*
X344150Y278237D02*
X347550D01*
X365302Y298737D02*
X368702D01*
X365302Y303737D02*
X368702D01*
X344250Y288737D02*
X347650D01*
X344250Y293737D02*
X347650D01*
X406502Y320537D02*
Y323937D01*
X411502Y320537D02*
Y323937D01*
X391802Y341237D02*
X395202D01*
X391802Y336237D02*
X395202D01*
X392302Y314237D02*
X395702D01*
X392302Y319237D02*
X395702D01*
X394502Y279937D02*
Y283337D01*
X399502Y279937D02*
Y283337D01*
X438002Y279037D02*
Y282437D01*
X433002Y279037D02*
Y282437D01*
X439802Y294237D02*
X443202D01*
X439802Y299237D02*
X443202D01*
X449502Y279037D02*
Y282437D01*
X444502Y279037D02*
Y282437D01*
X403702Y279937D02*
Y283337D01*
X408702Y279937D02*
Y283337D01*
X422802Y263237D02*
X426202D01*
X422802Y258237D02*
X426202D01*
X423002Y241537D02*
Y244937D01*
X418002Y241537D02*
Y244937D01*
X386002Y240537D02*
Y243937D01*
X381002Y240537D02*
Y243937D01*
X376802Y240537D02*
Y243937D01*
X371802Y240537D02*
Y243937D01*
X367602Y241037D02*
Y244437D01*
X362602Y241037D02*
Y244437D01*
X358402Y241037D02*
Y244437D01*
X353402Y241037D02*
Y244437D01*
X349502Y260537D02*
Y263937D01*
X344502Y260537D02*
Y263937D01*
X339502Y260537D02*
Y263937D01*
X334502Y260537D02*
Y263937D01*
X412502Y260537D02*
Y263937D01*
X407502Y260537D02*
Y263937D01*
X373502Y261537D02*
Y264937D01*
X378502Y261537D02*
Y264937D01*
X392302Y324237D02*
X395702D01*
X392302Y329237D02*
X395702D01*
X355502Y308037D02*
Y311437D01*
X350502Y308037D02*
Y311437D01*
X345502Y308037D02*
Y311437D01*
X340502Y308037D02*
Y311437D01*
X396002Y298537D02*
Y301937D01*
X391002Y298537D02*
Y301937D01*
X386502Y298537D02*
Y301937D01*
X381502Y298537D02*
Y301937D01*
X381702Y278037D02*
Y281437D01*
X386702Y278037D02*
Y281437D01*
X315802Y264237D02*
X319202D01*
X315802Y269237D02*
X319202D01*
X315802Y255237D02*
X319202D01*
X315802Y260237D02*
X319202D01*
D41*
X289924Y317863D02*
X330081D01*
Y333611D01*
X289924D02*
X330081D01*
X289924Y317863D02*
Y333611D01*
X443998Y192182D02*
Y190214D01*
X444982D01*
X445309Y190542D01*
Y191854D01*
X444982Y192182D01*
X443998D01*
X446949Y190214D02*
X446293D01*
X445965Y190542D01*
Y191198D01*
X446293Y191526D01*
X446949D01*
X447277Y191198D01*
Y190870D01*
X445965D01*
X447933Y190214D02*
X448917D01*
X449245Y190542D01*
X448917Y190870D01*
X448261D01*
X447933Y191198D01*
X448261Y191526D01*
X449245D01*
X449901Y190214D02*
X450557D01*
X450229D01*
Y191526D01*
X449901D01*
X452197Y189558D02*
X452525D01*
X452853Y189886D01*
Y191526D01*
X451869D01*
X451541Y191198D01*
Y190542D01*
X451869Y190214D01*
X452853D01*
X453509D02*
Y191526D01*
X454493D01*
X454821Y191198D01*
Y190214D01*
X456461D02*
X455805D01*
X455477Y190542D01*
Y191198D01*
X455805Y191526D01*
X456461D01*
X456789Y191198D01*
Y190870D01*
X455477D01*
X458757Y192182D02*
Y190214D01*
X457773D01*
X457445Y190542D01*
Y191198D01*
X457773Y191526D01*
X458757D01*
X461380Y192182D02*
Y190214D01*
X462364D01*
X462692Y190542D01*
Y190870D01*
Y191198D01*
X462364Y191526D01*
X461380D01*
X463348D02*
Y190542D01*
X463676Y190214D01*
X464660D01*
Y189886D01*
X464332Y189558D01*
X464004D01*
X464660Y190214D02*
Y191526D01*
X467284Y192182D02*
X468596D01*
X467940D01*
Y190214D01*
X469252Y192182D02*
Y190214D01*
X470564D01*
X469279Y285607D02*
X471903D01*
X470591Y286919D02*
Y284295D01*
X475838Y283639D02*
X473214D01*
X475838Y286263D01*
Y286919D01*
X475182Y287575D01*
X473870D01*
X473214Y286919D01*
X477150Y283639D02*
Y284295D01*
X477806D01*
Y283639D01*
X477150D01*
X483054Y287575D02*
X480430D01*
Y285607D01*
X481742Y286263D01*
X482398D01*
X483054Y285607D01*
Y284295D01*
X482398Y283639D01*
X481086D01*
X480430Y284295D01*
X468688Y296434D02*
X471312D01*
X475248Y294466D02*
X472624D01*
X475248Y297090D01*
Y297746D01*
X474592Y298402D01*
X473280D01*
X472624Y297746D01*
X476560Y294466D02*
Y295122D01*
X477216D01*
Y294466D01*
X476560D01*
X482463Y298402D02*
X479840D01*
Y296434D01*
X481151Y297090D01*
X481807D01*
X482463Y296434D01*
Y295122D01*
X481807Y294466D01*
X480495D01*
X479840Y295122D01*
X471739Y267398D02*
Y263462D01*
X473707D01*
X474363Y264118D01*
Y266742D01*
X473707Y267398D01*
X471739D01*
X475675D02*
Y264774D01*
X476987Y263462D01*
X478299Y264774D01*
Y267398D01*
X479611D02*
Y263462D01*
X481579D01*
X482235Y264118D01*
Y266742D01*
X481579Y267398D01*
X479611D01*
X483547D02*
Y263462D01*
X485514D01*
X486170Y264118D01*
Y266742D01*
X485514Y267398D01*
X483547D01*
X474560Y276978D02*
X473904Y277634D01*
X472592D01*
X471936Y276978D01*
Y274354D01*
X472592Y273698D01*
X473904D01*
X474560Y274354D01*
Y275666D01*
X473248D01*
X475872Y273698D02*
Y277634D01*
X478496Y273698D01*
Y277634D01*
X479808D02*
Y273698D01*
X481776D01*
X482432Y274354D01*
Y276978D01*
X481776Y277634D01*
X479808D01*
D42*
X375568Y315536D02*
X378203D01*
X364802D02*
X367437D01*
X378203D02*
Y316439D01*
X375568Y328938D02*
X378203D01*
X364802Y328035D02*
Y328938D01*
Y315536D02*
Y316439D01*
X378203Y328035D02*
Y328938D01*
X364802D02*
X367437D01*
X426002Y276787D02*
Y284687D01*
X418172D02*
X420832D01*
X413002Y276787D02*
Y284687D01*
D43*
X440352Y297551D02*
Y301487D01*
X437729D01*
X433793Y297551D02*
X436417D01*
Y299519D01*
X435105Y298863D01*
X434449D01*
X433793Y299519D01*
Y300831D01*
X434449Y301487D01*
X435761D01*
X436417Y300831D01*
X331065Y278187D02*
X335000D01*
Y280811D01*
X331065Y284747D02*
Y282123D01*
X335000D01*
Y284747D01*
X333032Y282123D02*
Y283435D01*
X331065Y286058D02*
X335000D01*
Y288026D01*
X334345Y288682D01*
X331721D01*
X331065Y288026D01*
Y286058D01*
X335000Y289994D02*
Y291306D01*
Y290650D01*
X331065D01*
X331721Y289994D01*
X354152Y272787D02*
Y276723D01*
X356120D01*
X356776Y276067D01*
Y274755D01*
X356120Y274099D01*
X354152D01*
X360712Y276067D02*
X360056Y276723D01*
X358744D01*
X358088Y276067D01*
Y275411D01*
X358744Y274755D01*
X360056D01*
X360712Y274099D01*
Y273443D01*
X360056Y272787D01*
X358744D01*
X358088Y273443D01*
X362024Y272787D02*
X363336D01*
X362680D01*
Y276723D01*
X362024Y276067D01*
X360052Y307787D02*
Y311723D01*
X362020D01*
X362676Y311067D01*
Y309755D01*
X362020Y309099D01*
X360052D01*
X361364D02*
X362676Y307787D01*
X363988D02*
X365300D01*
X364644D01*
Y311723D01*
X363988Y311067D01*
X369892Y307787D02*
X367268D01*
X369892Y310411D01*
Y311067D01*
X369236Y311723D01*
X367924D01*
X367268Y311067D01*
X339000Y297787D02*
Y301723D01*
X340968D01*
X341624Y301067D01*
Y299755D01*
X340968Y299099D01*
X339000D01*
X340312D02*
X341624Y297787D01*
X342936D02*
X344248D01*
X343592D01*
Y301723D01*
X342936Y301067D01*
X346216D02*
X346872Y301723D01*
X348184D01*
X348840Y301067D01*
Y300411D01*
X348184Y299755D01*
X347528D01*
X348184D01*
X348840Y299099D01*
Y298443D01*
X348184Y297787D01*
X346872D01*
X346216Y298443D01*
X415552Y329187D02*
X419488D01*
Y327219D01*
X418832Y326563D01*
X417520D01*
X416864Y327219D01*
Y329187D01*
Y327875D02*
X415552Y326563D01*
Y325251D02*
Y323939D01*
Y324595D01*
X419488D01*
X418832Y325251D01*
X415552Y320004D02*
X419488D01*
X417520Y321972D01*
Y319348D01*
X387402Y344783D02*
Y348719D01*
X389369D01*
X390025Y348063D01*
Y346751D01*
X389369Y346095D01*
X387402D01*
X388714D02*
X390025Y344783D01*
X391337D02*
X392649D01*
X391993D01*
Y348719D01*
X391337Y348063D01*
X397241Y348719D02*
X394617D01*
Y346751D01*
X395929Y347407D01*
X396585D01*
X397241Y346751D01*
Y345439D01*
X396585Y344783D01*
X395273D01*
X394617Y345439D01*
X387052Y323287D02*
Y327223D01*
X389020D01*
X389676Y326567D01*
Y325255D01*
X389020Y324599D01*
X387052D01*
X388364D02*
X389676Y323287D01*
X390988D02*
X392300D01*
X391644D01*
Y327223D01*
X390988Y326567D01*
X396892Y327223D02*
X395580Y326567D01*
X394268Y325255D01*
Y323943D01*
X394924Y323287D01*
X396236D01*
X396892Y323943D01*
Y324599D01*
X396236Y325255D01*
X394268D01*
X291602Y250655D02*
X290946Y249999D01*
Y248688D01*
X291602Y248031D01*
X292258D01*
X292914Y248688D01*
Y249999D01*
X293570Y250655D01*
X294226D01*
X294882Y249999D01*
Y248688D01*
X294226Y248031D01*
X294882Y251967D02*
Y253279D01*
Y252623D01*
X290946D01*
X291602Y251967D01*
X405252Y316423D02*
X407876D01*
X406564D01*
Y312487D01*
X409188D02*
Y316423D01*
X411156D01*
X411812Y315767D01*
Y314455D01*
X411156Y313799D01*
X409188D01*
X415092Y312487D02*
Y316423D01*
X413124Y314455D01*
X415748D01*
X429752Y258923D02*
X432376D01*
X431064D01*
Y254987D01*
X433688D02*
Y258923D01*
X435656D01*
X436312Y258267D01*
Y256955D01*
X435656Y256299D01*
X433688D01*
X440248Y258923D02*
X437624D01*
Y256955D01*
X438936Y257611D01*
X439592D01*
X440248Y256955D01*
Y255643D01*
X439592Y254987D01*
X438280D01*
X437624Y255643D01*
X427752Y346923D02*
X430376D01*
X429064D01*
Y342987D01*
X431688D02*
Y346923D01*
X433656D01*
X434312Y346267D01*
Y344955D01*
X433656Y344299D01*
X431688D01*
X438248Y346923D02*
X436936Y346267D01*
X435624Y344955D01*
Y343643D01*
X436280Y342987D01*
X437592D01*
X438248Y343643D01*
Y344299D01*
X437592Y344955D01*
X435624D01*
X359952Y300323D02*
Y297043D01*
X360608Y296387D01*
X361920D01*
X362576Y297043D01*
Y300323D01*
X363888Y299667D02*
X364544Y300323D01*
X365856D01*
X366512Y299667D01*
Y299011D01*
X365856Y298355D01*
X365200D01*
X365856D01*
X366512Y297699D01*
Y297043D01*
X365856Y296387D01*
X364544D01*
X363888Y297043D01*
X354452Y344423D02*
Y341143D01*
X355108Y340487D01*
X356420D01*
X357076Y341143D01*
Y344423D01*
X360356Y340487D02*
Y344423D01*
X358388Y342455D01*
X361012D01*
X458629Y254151D02*
X459940D01*
X459284D01*
Y257431D01*
X459940Y258087D01*
X460596D01*
X461252Y257431D01*
X457317Y254151D02*
X454693D01*
Y254807D01*
X457317Y257431D01*
Y258087D01*
X413002Y305673D02*
Y302393D01*
X413658Y301737D01*
X414970D01*
X415626Y302393D01*
Y305673D01*
X419562D02*
X416938D01*
Y303705D01*
X418250Y304361D01*
X418906D01*
X419562Y303705D01*
Y302393D01*
X418906Y301737D01*
X417594D01*
X416938Y302393D01*
X312117Y233111D02*
Y231799D01*
Y232455D01*
X315396D01*
X316052Y231799D01*
Y231143D01*
X315396Y230487D01*
X312117Y237047D02*
Y234423D01*
X314085D01*
X313428Y235735D01*
Y236391D01*
X314085Y237047D01*
X315396D01*
X316052Y236391D01*
Y235079D01*
X315396Y234423D01*
X383817Y230387D02*
X387752D01*
Y233011D01*
Y236291D02*
X383817D01*
X385785Y234323D01*
Y236947D01*
X355917Y335587D02*
X359852D01*
Y338211D01*
Y339523D02*
Y340835D01*
Y340179D01*
X355917D01*
X356573Y339523D01*
X388152Y274723D02*
X389464D01*
X388808D01*
Y270787D01*
X388152D01*
X389464D01*
X394056Y274067D02*
X393400Y274723D01*
X392088D01*
X391432Y274067D01*
Y271443D01*
X392088Y270787D01*
X393400D01*
X394056Y271443D01*
X395368Y270787D02*
X396680D01*
X396024D01*
Y274723D01*
X395368Y274067D01*
X285952Y316623D02*
Y312687D01*
Y314655D01*
X288576D01*
Y316623D01*
Y312687D01*
X289888D02*
X291200D01*
X290544D01*
Y316623D01*
X289888Y315967D01*
X316652Y308023D02*
Y304087D01*
X318620D01*
X319276Y304743D01*
Y307367D01*
X318620Y308023D01*
X316652D01*
X323212Y304087D02*
X320588D01*
X323212Y306711D01*
Y307367D01*
X322556Y308023D01*
X321244D01*
X320588Y307367D01*
X339552Y350623D02*
Y346687D01*
X341520D01*
X342176Y347343D01*
Y349967D01*
X341520Y350623D01*
X339552D01*
X343488Y346687D02*
X344800D01*
X344144D01*
Y350623D01*
X343488Y349967D01*
X396929Y267507D02*
X397585Y266851D01*
X398896D01*
X399552Y267507D01*
Y270131D01*
X398896Y270787D01*
X397585D01*
X396929Y270131D01*
X392993Y266851D02*
X395617D01*
Y268819D01*
X394305Y268163D01*
X393649D01*
X392993Y268819D01*
Y270131D01*
X393649Y270787D01*
X394961D01*
X395617Y270131D01*
X391681Y267507D02*
X391025Y266851D01*
X389713D01*
X389057Y267507D01*
Y270131D01*
X389713Y270787D01*
X391025D01*
X391681Y270131D01*
Y267507D01*
X435576Y294867D02*
X434920Y295523D01*
X433608D01*
X432952Y294867D01*
Y292243D01*
X433608Y291587D01*
X434920D01*
X435576Y292243D01*
X438856Y291587D02*
Y295523D01*
X436888Y293555D01*
X439512D01*
X440824Y292243D02*
X441480Y291587D01*
X442792D01*
X443448Y292243D01*
Y294867D01*
X442792Y295523D01*
X441480D01*
X440824Y294867D01*
Y294211D01*
X441480Y293555D01*
X443448D01*
X455632Y296663D02*
X456288Y297319D01*
Y298631D01*
X455632Y299287D01*
X453008D01*
X452352Y298631D01*
Y297319D01*
X453008Y296663D01*
X452352Y293383D02*
X456288D01*
X454320Y295351D01*
Y292727D01*
X455632Y291416D02*
X456288Y290760D01*
Y289448D01*
X455632Y288792D01*
X454976D01*
X454320Y289448D01*
X453664Y288792D01*
X453008D01*
X452352Y289448D01*
Y290760D01*
X453008Y291416D01*
X453664D01*
X454320Y290760D01*
X454976Y291416D01*
X455632D01*
X454320Y290760D02*
Y289448D01*
X447076Y294867D02*
X446420Y295523D01*
X445108D01*
X444452Y294867D01*
Y292243D01*
X445108Y291587D01*
X446420D01*
X447076Y292243D01*
X450356Y291587D02*
Y295523D01*
X448388Y293555D01*
X451012D01*
X452324Y295523D02*
X454948D01*
Y294867D01*
X452324Y292243D01*
Y291587D01*
X406129Y267507D02*
X406784Y266851D01*
X408096D01*
X408752Y267507D01*
Y270131D01*
X408096Y270787D01*
X406784D01*
X406129Y270131D01*
X402849Y270787D02*
Y266851D01*
X404817Y268819D01*
X402193D01*
X398257Y266851D02*
X399569Y267507D01*
X400881Y268819D01*
Y270131D01*
X400225Y270787D01*
X398913D01*
X398257Y270131D01*
Y269475D01*
X398913Y268819D01*
X400881D01*
X410373Y260811D02*
X409717Y260155D01*
Y258843D01*
X410373Y258187D01*
X412996D01*
X413652Y258843D01*
Y260155D01*
X412996Y260811D01*
X413652Y264091D02*
X409717D01*
X411685Y262123D01*
Y264747D01*
X409717Y268682D02*
Y266058D01*
X411685D01*
X411028Y267370D01*
Y268026D01*
X411685Y268682D01*
X412996D01*
X413652Y268026D01*
Y266714D01*
X412996Y266058D01*
X420576Y257367D02*
X419920Y258023D01*
X418608D01*
X417952Y257367D01*
Y254743D01*
X418608Y254087D01*
X419920D01*
X420576Y254743D01*
X423856Y254087D02*
Y258023D01*
X421888Y256055D01*
X424512D01*
X427792Y254087D02*
Y258023D01*
X425824Y256055D01*
X428448D01*
X383576Y256367D02*
X382920Y257023D01*
X381608D01*
X380952Y256367D01*
Y253743D01*
X381608Y253087D01*
X382920D01*
X383576Y253743D01*
X386856Y253087D02*
Y257023D01*
X384888Y255055D01*
X387512D01*
X388824Y256367D02*
X389480Y257023D01*
X390792D01*
X391448Y256367D01*
Y255711D01*
X390792Y255055D01*
X390136D01*
X390792D01*
X391448Y254399D01*
Y253743D01*
X390792Y253087D01*
X389480D01*
X388824Y253743D01*
X374376Y256367D02*
X373720Y257023D01*
X372408D01*
X371752Y256367D01*
Y253743D01*
X372408Y253087D01*
X373720D01*
X374376Y253743D01*
X377656Y253087D02*
Y257023D01*
X375688Y255055D01*
X378312D01*
X382248Y253087D02*
X379624D01*
X382248Y255711D01*
Y256367D01*
X381592Y257023D01*
X380280D01*
X379624Y256367D01*
X355273Y238411D02*
X354617Y237755D01*
Y236443D01*
X355273Y235787D01*
X357896D01*
X358552Y236443D01*
Y237755D01*
X357896Y238411D01*
X358552Y241691D02*
X354617D01*
X356585Y239723D01*
Y242347D01*
X358552Y243658D02*
Y244970D01*
Y244314D01*
X354617D01*
X355273Y243658D01*
X355976Y256867D02*
X355320Y257523D01*
X354008D01*
X353352Y256867D01*
Y254243D01*
X354008Y253587D01*
X355320D01*
X355976Y254243D01*
X359256Y253587D02*
Y257523D01*
X357288Y255555D01*
X359912D01*
X361224Y256867D02*
X361880Y257523D01*
X363192D01*
X363848Y256867D01*
Y254243D01*
X363192Y253587D01*
X361880D01*
X361224Y254243D01*
Y256867D01*
X347076Y276367D02*
X346420Y277023D01*
X345108D01*
X344452Y276367D01*
Y273743D01*
X345108Y273087D01*
X346420D01*
X347076Y273743D01*
X348388Y276367D02*
X349044Y277023D01*
X350356D01*
X351012Y276367D01*
Y275711D01*
X350356Y275055D01*
X349700D01*
X350356D01*
X351012Y274399D01*
Y273743D01*
X350356Y273087D01*
X349044D01*
X348388Y273743D01*
X352324D02*
X352980Y273087D01*
X354292D01*
X354948Y273743D01*
Y276367D01*
X354292Y277023D01*
X352980D01*
X352324Y276367D01*
Y275711D01*
X352980Y275055D01*
X354948D01*
X337076Y276367D02*
X336420Y277023D01*
X335108D01*
X334452Y276367D01*
Y273743D01*
X335108Y273087D01*
X336420D01*
X337076Y273743D01*
X338388Y276367D02*
X339044Y277023D01*
X340356D01*
X341012Y276367D01*
Y275711D01*
X340356Y275055D01*
X339700D01*
X340356D01*
X341012Y274399D01*
Y273743D01*
X340356Y273087D01*
X339044D01*
X338388Y273743D01*
X342324Y276367D02*
X342980Y277023D01*
X344292D01*
X344948Y276367D01*
Y275711D01*
X344292Y275055D01*
X344948Y274399D01*
Y273743D01*
X344292Y273087D01*
X342980D01*
X342324Y273743D01*
Y274399D01*
X342980Y275055D01*
X342324Y275711D01*
Y276367D01*
X342980Y275055D02*
X344292D01*
X410076Y276367D02*
X409420Y277023D01*
X408108D01*
X407452Y276367D01*
Y273743D01*
X408108Y273087D01*
X409420D01*
X410076Y273743D01*
X411388Y276367D02*
X412044Y277023D01*
X413356D01*
X414012Y276367D01*
Y275711D01*
X413356Y275055D01*
X412700D01*
X413356D01*
X414012Y274399D01*
Y273743D01*
X413356Y273087D01*
X412044D01*
X411388Y273743D01*
X415324Y277023D02*
X417948D01*
Y276367D01*
X415324Y273743D01*
Y273087D01*
X375928Y249107D02*
X376585Y248451D01*
X377896D01*
X378552Y249107D01*
Y251731D01*
X377896Y252387D01*
X376585D01*
X375928Y251731D01*
X374617Y249107D02*
X373961Y248451D01*
X372649D01*
X371993Y249107D01*
Y249763D01*
X372649Y250419D01*
X373305D01*
X372649D01*
X371993Y251075D01*
Y251731D01*
X372649Y252387D01*
X373961D01*
X374617Y251731D01*
X368057Y248451D02*
X369369Y249107D01*
X370681Y250419D01*
Y251731D01*
X370025Y252387D01*
X368713D01*
X368057Y251731D01*
Y251075D01*
X368713Y250419D01*
X370681D01*
X389676Y336567D02*
X389020Y337223D01*
X387708D01*
X387052Y336567D01*
Y333943D01*
X387708Y333287D01*
X389020D01*
X389676Y333943D01*
X390988Y336567D02*
X391644Y337223D01*
X392956D01*
X393612Y336567D01*
Y335911D01*
X392956Y335255D01*
X392300D01*
X392956D01*
X393612Y334599D01*
Y333943D01*
X392956Y333287D01*
X391644D01*
X390988Y333943D01*
X394924Y333287D02*
X396236D01*
X395580D01*
Y337223D01*
X394924Y336567D01*
X353076Y323867D02*
X352420Y324523D01*
X351108D01*
X350452Y323867D01*
Y321243D01*
X351108Y320587D01*
X352420D01*
X353076Y321243D01*
X354388Y323867D02*
X355044Y324523D01*
X356356D01*
X357012Y323867D01*
Y323211D01*
X356356Y322555D01*
X355700D01*
X356356D01*
X357012Y321899D01*
Y321243D01*
X356356Y320587D01*
X355044D01*
X354388Y321243D01*
X358324Y323867D02*
X358980Y324523D01*
X360292D01*
X360948Y323867D01*
Y321243D01*
X360292Y320587D01*
X358980D01*
X358324Y321243D01*
Y323867D01*
X343076D02*
X342420Y324523D01*
X341108D01*
X340452Y323867D01*
Y321243D01*
X341108Y320587D01*
X342420D01*
X343076Y321243D01*
X347012Y320587D02*
X344388D01*
X347012Y323211D01*
Y323867D01*
X346356Y324523D01*
X345044D01*
X344388Y323867D01*
X348324Y321243D02*
X348980Y320587D01*
X350292D01*
X350948Y321243D01*
Y323867D01*
X350292Y324523D01*
X348980D01*
X348324Y323867D01*
Y323211D01*
X348980Y322555D01*
X350948D01*
X393576Y314367D02*
X392920Y315023D01*
X391608D01*
X390952Y314367D01*
Y311743D01*
X391608Y311087D01*
X392920D01*
X393576Y311743D01*
X397512Y311087D02*
X394888D01*
X397512Y313711D01*
Y314367D01*
X396856Y315023D01*
X395544D01*
X394888Y314367D01*
X398824D02*
X399480Y315023D01*
X400792D01*
X401448Y314367D01*
Y313711D01*
X400792Y313055D01*
X401448Y312399D01*
Y311743D01*
X400792Y311087D01*
X399480D01*
X398824Y311743D01*
Y312399D01*
X399480Y313055D01*
X398824Y313711D01*
Y314367D01*
X399480Y313055D02*
X400792D01*
X384076Y314367D02*
X383420Y315023D01*
X382108D01*
X381452Y314367D01*
Y311743D01*
X382108Y311087D01*
X383420D01*
X384076Y311743D01*
X388012Y311087D02*
X385388D01*
X388012Y313711D01*
Y314367D01*
X387356Y315023D01*
X386044D01*
X385388Y314367D01*
X389324Y315023D02*
X391948D01*
Y314367D01*
X389324Y311743D01*
Y311087D01*
X384128Y265607D02*
X384785Y264951D01*
X386096D01*
X386752Y265607D01*
Y268231D01*
X386096Y268887D01*
X384785D01*
X384128Y268231D01*
X380193Y268887D02*
X382817D01*
X380193Y266263D01*
Y265607D01*
X380849Y264951D01*
X382161D01*
X382817Y265607D01*
X376257Y264951D02*
X377569Y265607D01*
X378881Y266919D01*
Y268231D01*
X378225Y268887D01*
X376913D01*
X376257Y268231D01*
Y267575D01*
X376913Y266919D01*
X378881D01*
X331632Y266663D02*
X332288Y267319D01*
Y268631D01*
X331632Y269287D01*
X329008D01*
X328352Y268631D01*
Y267319D01*
X329008Y266663D01*
X328352Y262727D02*
Y265351D01*
X330976Y262727D01*
X331632D01*
X332288Y263383D01*
Y264695D01*
X331632Y265351D01*
X332288Y258792D02*
Y261416D01*
X330320D01*
X330976Y260104D01*
Y259448D01*
X330320Y258792D01*
X329008D01*
X328352Y259448D01*
Y260760D01*
X329008Y261416D01*
X331632Y257663D02*
X332288Y258319D01*
Y259631D01*
X331632Y260287D01*
X329008D01*
X328352Y259631D01*
Y258319D01*
X329008Y257663D01*
X328352Y253727D02*
Y256351D01*
X330976Y253727D01*
X331632D01*
X332288Y254383D01*
Y255695D01*
X331632Y256351D01*
X328352Y250448D02*
X332288D01*
X330320Y252415D01*
Y249792D01*
D44*
X362725Y330942D02*
X366057Y327609D01*
X362725D02*
X366057Y330942D01*
X362725Y329276D02*
X366057D01*
X364391Y327609D02*
Y330942D01*
X409897Y274087D02*
X413229Y277419D01*
Y274087D02*
X409897Y277419D01*
X411563Y274087D02*
Y277419D01*
X413229Y275753D02*
X409897D01*
M02*
